<?xml version="1.0" encoding="UTF-8" standalone="no"?>
<svg width="324px" height="18px" viewBox="0 0 324 18" version="1.1" xmlns="http://www.w3.org/2000/svg" xmlns:xlink="http://www.w3.org/1999/xlink">
    <!-- Generator: Sketch 3.6.1 (26313) - http://www.bohemiancoding.com/sketch -->
    <title>Page 1</title>
    <desc>Created with Sketch.</desc>
    <defs>
        <path id="path-1" d="M0,0.504 L323.555,0.504 L323.555,18 L0,18 L0,0.504 Z"></path>
    </defs>
    <g id="Work" stroke="none" stroke-width="1" fill="none" fill-rule="evenodd">
        <g id="Pheno-Work-MensWearhouse" transform="translate(-942.000000, -633.000000)">
            <g id="Page-1" transform="translate(942.000000, 633.000000)">
                <mask id="mask-2" fill="white">
                    <use xlink:href="#path-1"></use>
                </mask>
                <g id="Clip-2"></g>
                <path d="M319.7155,7.7 C317.8605,7.696 316.3585,6.196 316.3565,4.338 C316.3585,2.484 317.8605,0.981 319.7155,0.98 C321.5715,0.981 323.0725,2.484 323.0765,4.338 C323.0725,6.193 321.5715,7.696 319.7155,7.7 L319.7155,7.7 Z M319.7155,0.504 C317.5985,0.504 315.8815,2.221 315.8815,4.338 C315.8815,6.458 317.5985,8.173 319.7155,8.173 C321.8345,8.173 323.5545,6.458 323.5545,4.338 C323.5545,2.221 321.8345,0.504 319.7155,0.504 L319.7155,0.504 Z M192.2035,9.032 C191.7055,9.18 191.2225,9.219 190.7735,9.219 C190.1705,9.219 189.6065,9.178 189.0455,9.111 C188.8405,9.08 188.8175,8.98 188.7975,8.692 L188.7975,2.262 C188.8455,1.882 188.7635,1.983 188.9295,1.952 C189.7015,1.952 189.9945,1.952 190.9355,2.017 C192.8215,2.164 194.0945,3.249 194.1125,5.662 C194.1155,6.911 193.5665,8.634 192.2035,9.032 L192.2035,9.032 Z M198.5195,16.571 C197.6335,16.548 197.5625,16.459 197.2565,16.014 C196.1585,14.301 195.7625,13.686 195.0595,12.591 C194.4145,11.589 193.8855,10.741 193.2405,9.828 C195.4965,9.614 197.3385,8.043 197.3325,5.597 C197.3285,2.466 194.7745,0.995 191.7425,0.99 C190.4755,0.99 188.7395,1.122 187.4615,1.122 C186.3515,1.122 185.6925,1.058 184.5655,1.058 C184.3285,1.058 184.1725,1.26 184.1725,1.449 C184.1725,1.526 184.1885,1.622 184.2585,1.707 C184.3285,1.796 184.4515,1.845 184.5655,1.841 L185.4185,1.841 C185.6835,1.843 185.8925,2.097 185.9035,2.92 L185.9035,15.473 C185.8735,16.444 185.8055,16.571 185.4835,16.571 L184.6055,16.571 C184.3675,16.571 184.1935,16.776 184.1935,16.966 C184.1935,17.043 184.2075,17.153 184.2935,17.245 C184.3835,17.335 184.5005,17.358 184.6055,17.358 C185.7405,17.358 186.3995,17.268 187.5065,17.268 C188.5125,17.268 189.0925,17.291 190.0765,17.358 C190.1875,17.356 190.2835,17.349 190.3835,17.284 C190.4865,17.216 190.5375,17.083 190.5295,16.987 C190.5295,16.737 190.2855,16.595 190.0945,16.595 C189.7605,16.573 189.5435,16.55 189.2095,16.528 C188.8235,16.485 188.8305,16.364 188.7975,15.604 L188.7975,10.293 C188.8555,9.898 188.7635,10.013 189.0415,9.96 C189.2425,9.96 189.5825,10.027 189.7425,10.127 C190.4655,10.546 190.7995,10.921 192.1015,13.147 C193.0025,14.682 194.2995,16.86 194.5535,17.332 L194.6175,17.452 L194.7545,17.446 C195.2685,17.422 196.0515,17.358 196.8515,17.358 C197.2935,17.358 197.6065,17.347 197.9515,17.347 C198.1215,17.347 198.3015,17.35 198.5105,17.358 C198.6275,17.358 198.7365,17.337 198.8305,17.26 C198.9245,17.181 198.9615,17.059 198.9575,16.966 C198.9535,16.729 198.7465,16.571 198.5195,16.571 L198.5195,16.571 Z M171.5515,10.78 C170.2175,10.825 169.3485,10.825 167.9385,10.825 C167.5155,10.825 166.9375,10.806 166.5885,10.793 C166.9435,9.919 167.5335,8.407 168.1385,7.023 C168.3995,6.432 168.7915,5.695 169.0395,5.242 C169.1255,5.395 169.1995,5.523 169.2625,5.648 C170.1385,7.508 170.5965,8.515 171.4295,10.423 C171.5025,10.588 171.5435,10.708 171.5635,10.78 L171.5515,10.78 Z M177.9845,16.577 C177.5125,16.501 177.2695,16.255 176.7115,15.198 C175.8195,13.481 174.9635,11.308 173.8855,8.823 C172.6335,5.924 171.4945,3.533 170.6665,1.244 C170.6435,1.083 170.5045,0.754 170.1765,0.772 C169.8485,0.774 169.7365,1.074 169.6905,1.219 C168.3555,4.415 167.6105,6.125 166.1845,9.26 C165.0215,11.806 163.4595,15.415 163.2465,15.862 C163.1155,16.127 162.9835,16.352 162.8485,16.52 C162.5865,16.555 162.3935,16.573 162.0815,16.573 C161.8895,16.573 161.6675,16.723 161.6655,16.965 C161.6655,17.045 161.6825,17.155 161.7715,17.245 C161.8605,17.335 161.9755,17.356 162.0815,17.356 C162.9555,17.356 163.4385,17.266 164.2755,17.266 C165.1105,17.266 165.6195,17.356 166.4925,17.356 C166.7335,17.356 166.9245,17.161 166.9245,16.965 C166.9245,16.72 166.6875,16.573 166.4925,16.573 C166.1525,16.556 165.7665,16.522 165.5575,16.491 C165.4885,16.302 165.3935,16.057 165.3925,15.671 C165.3925,15.452 165.3925,15.204 165.4325,14.888 C165.5865,13.723 165.6685,13.206 166.0375,12.142 L166.1845,11.739 L171.9515,11.739 L172.2445,12.36 C172.8145,13.61 173.1115,14.299 173.5965,15.634 C173.6625,15.848 173.7195,16.018 173.7155,16.108 C173.6975,16.345 173.6805,16.364 173.4055,16.503 C173.2585,16.571 173.0995,16.573 172.8985,16.573 C172.8165,16.573 172.7215,16.587 172.6275,16.657 C172.5335,16.726 172.4815,16.852 172.4855,16.965 C172.4835,17.061 172.5215,17.183 172.6135,17.258 C172.7055,17.335 172.8145,17.356 172.9225,17.356 C174.0375,17.356 174.6535,17.226 175.7305,17.226 C176.5685,17.226 176.8935,17.311 177.9385,17.356 C178.0515,17.354 178.1515,17.349 178.2565,17.278 C178.3695,17.2 178.4085,17.061 178.4025,16.965 C178.3995,16.653 178.0825,16.58 177.9845,16.577 L177.9845,16.577 Z M223.6905,1.841 L224.3695,1.841 C224.6085,1.841 224.7605,1.634 224.7605,1.45 C224.7605,1.373 224.7445,1.277 224.6725,1.19 C224.6025,1.1 224.4795,1.055 224.3695,1.057 C223.2835,1.057 222.6925,1.123 221.6255,1.123 C220.6045,1.123 220.0375,1.057 218.9945,1.057 C218.7585,1.057 218.6025,1.255 218.6025,1.45 C218.6025,1.599 218.7425,1.841 218.9945,1.841 L219.6765,1.841 C219.9575,1.843 220.3305,2.194 220.3345,2.921 L220.3325,7.993 L211.3305,7.993 L211.3305,2.921 C211.3325,2.196 211.7055,1.843 211.9925,1.841 L212.6745,1.841 C212.8735,1.841 213.0635,1.653 213.0635,1.45 C213.0635,1.294 212.9185,1.057 212.6745,1.057 C211.5205,1.057 210.8875,1.123 209.7545,1.123 C208.7785,1.123 208.2285,1.057 207.2305,1.057 C206.9965,1.057 206.8365,1.255 206.8365,1.45 C206.8365,1.599 206.9795,1.841 207.2305,1.841 L207.9105,1.841 C208.1605,1.843 208.3855,2.145 208.3935,2.921 L208.3935,15.298 C208.3735,16.374 208.2335,16.571 207.9335,16.573 C207.6215,16.571 207.4515,16.571 207.1415,16.573 C206.9015,16.573 206.7465,16.772 206.7465,16.965 C206.7465,17.116 206.8895,17.358 207.1415,17.358 C208.1665,17.358 208.7375,17.267 209.7335,17.267 C210.8365,17.267 211.4485,17.358 212.5885,17.358 C212.8165,17.358 213.0135,17.2 213.0215,16.965 C213.0215,16.767 212.8265,16.573 212.5885,16.573 C212.2975,16.571 212.1215,16.571 211.8405,16.573 C211.5515,16.571 211.3485,16.356 211.3305,15.298 L211.3305,8.974 L220.3345,8.974 L220.3345,15.298 C220.3155,16.313 219.9675,16.571 219.6765,16.573 C219.4085,16.571 219.2565,16.571 218.9945,16.573 C218.7545,16.573 218.6025,16.772 218.6025,16.965 C218.6025,17.114 218.7395,17.358 218.9945,17.358 C220.0375,17.358 220.6045,17.291 221.6255,17.291 C222.6905,17.291 223.2815,17.358 224.3695,17.358 C224.6105,17.358 224.7605,17.151 224.7605,16.965 C224.7605,16.887 224.7445,16.794 224.6725,16.707 C224.6035,16.618 224.4805,16.571 224.3695,16.573 C224.1065,16.571 223.9535,16.571 223.6905,16.573 C223.4365,16.571 223.2155,16.305 223.2035,15.343 L223.2055,2.921 C223.2155,2.118 223.4285,1.843 223.6905,1.841 L223.6905,1.841 Z M312.8965,12.493 C312.8815,12.489 312.8455,12.487 312.8285,12.487 C312.5725,12.489 312.4495,12.719 312.4205,12.87 C312.0955,13.957 312.2285,13.551 311.9355,14.301 C311.5305,14.741 310.5435,15.524 309.8485,15.799 C309.0185,16.138 307.6955,16.503 304.6625,16.503 C304.0945,16.499 303.8635,16.108 303.8475,15.582 L303.8475,9.457 L305.5605,9.457 C306.9335,9.461 307.6665,9.868 308.0905,10.47 L308.0905,11.808 C308.0905,12.047 308.2585,12.288 308.5045,12.288 C308.6005,12.291 308.7315,12.258 308.8165,12.157 C308.8985,12.054 308.9145,11.942 308.9145,11.831 L308.9145,6.235 C308.9145,6.113 308.9015,6.001 308.8285,5.892 C308.7585,5.781 308.6145,5.728 308.5045,5.73 C308.3935,5.728 308.2545,5.78 308.1805,5.886 C308.1065,5.987 308.0905,6.098 308.0905,6.211 L308.0905,7.126 C307.6295,8.02 306.8345,8.577 305.5415,8.583 C305.2355,8.583 304.0925,8.583 304.0045,8.584 C303.8795,8.584 303.8885,8.569 303.8795,8.575 C303.8735,8.575 303.8425,8.504 303.8475,8.296 L303.8475,2.898 C303.8675,2.342 304.0325,1.911 304.6195,1.907 L306.5695,1.907 C308.3035,1.904 310.0415,2.698 311.1125,3.775 L311.3215,3.981 C311.4905,4.504 311.7195,5.35 311.7875,5.573 C311.8165,5.674 311.8965,5.86 312.1605,5.882 C312.1825,5.882 312.2015,5.88 312.2245,5.876 C312.3775,5.862 312.5785,5.694 312.5645,5.487 C312.5645,5.463 312.5645,5.441 312.5605,5.419 C312.2485,3.696 312.0985,2.717 311.9225,1.009 C311.9125,0.77 311.7445,0.505 311.4655,0.507 C311.1495,0.508 310.9925,0.786 310.9695,1.031 C310.8935,1.046 310.7235,1.059 310.4555,1.057 L299.7685,1.057 C299.5295,1.057 299.3795,1.261 299.3795,1.449 C299.3795,1.528 299.3905,1.626 299.4575,1.718 C299.5265,1.816 299.6545,1.867 299.7685,1.863 L300.4465,1.863 C300.6975,1.865 300.9305,2.189 300.9345,2.942 L300.9345,15.297 C300.9105,16.395 300.7775,16.571 300.4715,16.573 C300.1855,16.571 299.9655,16.571 299.6805,16.573 C299.4425,16.573 299.2875,16.774 299.2875,16.965 C299.2875,17.116 299.4285,17.358 299.6805,17.358 C300.0765,17.358 301.5165,17.338 303.0925,17.338 C303.8795,17.338 304.7055,17.343 305.4475,17.358 C306.5965,17.379 308.0825,17.397 309.2815,17.422 C309.8795,17.436 310.4055,17.452 310.7805,17.474 C310.9515,17.483 311.0905,17.495 311.1855,17.504 C311.2295,17.725 311.4375,17.876 311.6095,17.884 C311.6295,17.885 311.6525,17.887 311.6805,17.887 C311.8965,17.887 312.0975,17.741 312.1415,17.509 C312.4895,15.649 312.7095,14.83 313.1895,13.095 C313.2055,13.026 313.2195,12.963 313.2195,12.884 C313.2365,12.752 313.1155,12.506 312.8965,12.493 L312.8965,12.493 Z M273.5475,1.057 C272.6255,1.059 272.2075,1.168 271.3985,1.166 C270.5165,1.168 269.9725,1.059 269.1155,1.057 C269.0175,1.057 268.9075,1.082 268.8215,1.16 C268.7325,1.238 268.6975,1.355 268.7015,1.448 C268.6975,1.526 268.7175,1.65 268.8215,1.736 C268.9245,1.814 269.0215,1.819 269.1155,1.821 C269.4185,1.819 269.8075,1.889 270.2195,1.903 C270.8305,3.372 270.9145,4.563 270.9145,10.888 L270.9145,11.282 C270.8925,14.45 269.2275,16.597 265.6905,16.618 C262.1195,16.594 260.9335,14.475 260.9015,11.545 L260.9015,2.921 C260.9015,2.241 261.2935,1.843 261.5645,1.841 L262.2465,1.841 C262.4825,1.841 262.6375,1.642 262.6375,1.448 C262.6375,1.296 262.4925,1.057 262.2465,1.057 C261.1175,1.057 260.5665,1.123 259.4595,1.123 C258.5045,1.123 257.8015,1.057 256.8265,1.057 C256.5885,1.057 256.4345,1.261 256.4345,1.448 C256.4345,1.6 256.5765,1.841 256.8265,1.841 L257.5065,1.841 C257.7465,1.843 257.9875,2.191 257.9885,2.921 L257.9885,11.455 C257.9855,13.637 258.6855,15.206 259.9815,16.196 C261.2715,17.186 263.1075,17.599 265.3595,17.599 L265.3715,17.599 C267.5765,17.599 269.1745,16.981 270.2095,15.862 C271.2485,14.743 271.7015,13.157 271.7015,11.282 L271.7015,10.888 C271.7015,4.391 271.9535,3.017 272.4655,1.91 C272.8325,1.861 273.1965,1.841 273.5475,1.841 C273.7745,1.841 273.9775,1.688 273.9835,1.448 C273.9775,1.208 273.7725,1.057 273.5475,1.057 L273.5475,1.057 Z M240.8615,16.681 C237.0295,16.671 234.9775,13.751 234.9555,9.13 C234.9795,4.529 236.9595,1.744 240.7275,1.731 C244.6115,1.745 246.5885,4.509 246.6135,9.13 C246.5975,13.43 244.7655,16.676 240.8615,16.681 L240.8615,16.681 Z M240.7275,0.837 C236.0825,0.845 231.7465,3.773 231.7355,9.13 C231.7465,14.485 236.0105,17.592 240.8185,17.599 C245.6065,17.592 249.8265,14.352 249.8345,9.13 C249.8265,3.773 245.5265,0.845 240.7275,0.837 L240.7275,0.837 Z M288.5045,7.998 L284.4855,7.118 C283.3125,6.855 282.3145,6.136 282.3085,4.653 C282.3125,3.132 283.7895,1.711 285.9085,1.709 C287.9635,1.707 289.8425,3.097 290.5565,5.1 C290.6145,5.378 290.6585,5.599 290.7255,5.886 C290.7605,6.076 290.9345,6.29 291.1575,6.274 C291.3775,6.272 291.5305,6.081 291.5305,5.86 C291.5305,5.836 291.5285,5.815 291.5275,5.792 C291.4575,5.455 291.3245,4.644 291.1965,3.68 C291.0905,2.925 291.0435,2.055 291.0435,1.361 C291.0335,1.098 290.8505,0.933 290.6315,0.926 C290.3815,0.915 290.2355,1.145 290.2205,1.26 C289.4535,1.097 287.9775,0.837 286.1075,0.837 C283.2205,0.842 280.4765,2.649 280.4715,5.947 C280.4555,8.583 281.9985,10.071 284.2015,10.504 L287.9755,11.296 C289.5645,11.637 290.1465,12.325 290.1685,13.717 C290.1645,15.389 288.6155,16.743 286.3935,16.749 C283.5905,16.745 282.3545,14.835 281.7445,13.327 C281.6925,12.922 281.6525,12.513 281.6065,12.05 C281.6065,11.778 281.3165,11.657 281.1705,11.657 C280.9405,11.657 280.7505,11.848 280.7505,12.073 C280.7505,12.112 280.7565,12.14 280.7605,12.153 C280.8015,12.745 280.8695,13.641 280.9105,14.647 C280.9315,15.028 280.9415,15.442 280.9415,15.858 C280.9415,16.274 280.9335,16.694 280.9105,17.084 C280.9075,17.217 280.9405,17.339 281.0265,17.425 C281.1135,17.512 281.2235,17.534 281.3035,17.534 C281.5085,17.556 281.6745,17.333 281.6995,17.202 C281.7255,17.141 281.7425,17.085 281.7605,17.03 C283.1235,17.377 284.4355,17.599 286.4145,17.599 C289.3195,17.594 292.3105,15.813 292.3175,12.223 C292.3305,9.631 290.5845,8.447 288.5045,7.998 L288.5045,7.998 Z M156.2445,12.493 C156.2275,12.489 156.1925,12.489 156.1735,12.489 C155.9215,12.489 155.7965,12.718 155.7655,12.868 C155.4385,13.956 155.5735,13.553 155.2845,14.301 C154.8785,14.741 153.8925,15.524 153.1925,15.799 C152.3655,16.137 151.0415,16.504 148.0065,16.504 C147.4395,16.498 147.2085,16.106 147.1925,15.583 L147.1925,9.457 L147.4795,9.457 C148.2915,9.457 147.8745,9.457 148.9055,9.459 C150.2745,9.461 151.0075,9.869 151.4345,10.471 L151.4345,11.807 C151.4345,12.048 151.6015,12.289 151.8485,12.289 C151.9445,12.29 152.0735,12.26 152.1615,12.159 C152.2455,12.056 152.2605,11.942 152.2635,11.831 L152.2635,6.235 C152.2605,6.112 152.2475,5.999 152.1735,5.891 C152.1015,5.782 151.9575,5.725 151.8485,5.73 C151.7345,5.728 151.6005,5.78 151.5245,5.884 C151.4525,5.987 151.4345,6.097 151.4345,6.212 L151.4345,7.124 C150.9745,8.021 150.1805,8.576 148.8845,8.584 L147.3505,8.584 C147.2235,8.584 147.2325,8.57 147.2235,8.576 C147.2175,8.576 147.1865,8.503 147.1925,8.296 L147.1925,2.898 C147.2125,2.342 147.3745,1.912 147.9625,1.906 L149.9155,1.906 C151.6495,1.904 153.3825,2.697 154.4595,3.775 L154.6645,3.98 C154.8345,4.501 155.0625,5.351 155.1285,5.57 C155.1655,5.668 155.2405,5.863 155.5045,5.882 C155.5275,5.882 155.5485,5.88 155.5705,5.877 C155.7225,5.863 155.9225,5.699 155.9105,5.492 C155.9105,5.463 155.9065,5.438 155.9025,5.412 C155.5955,3.695 155.4415,2.719 155.2685,1.01 C155.2575,0.77 155.0875,0.504 154.8105,0.507 C154.4955,0.507 154.3365,0.786 154.3105,1.032 C154.2345,1.046 154.0645,1.059 153.8005,1.059 L143.1135,1.059 C142.8775,1.059 142.7215,1.256 142.7215,1.449 C142.7215,1.53 142.7335,1.628 142.8045,1.721 C142.8735,1.817 143.0015,1.867 143.1135,1.863 L143.7925,1.863 C144.0395,1.865 144.2745,2.189 144.2785,2.941 L144.2785,15.297 C144.2545,16.397 144.1235,16.571 143.8145,16.573 L143.0255,16.573 C142.7865,16.573 142.6325,16.776 142.6325,16.966 C142.6325,17.112 142.7715,17.358 143.0255,17.358 C143.4235,17.358 144.8595,17.338 146.4375,17.338 C147.2255,17.338 148.0475,17.342 148.7925,17.358 C149.9405,17.379 151.4305,17.395 152.6255,17.422 C153.2245,17.436 153.7515,17.452 154.1255,17.473 C154.2955,17.483 154.4355,17.495 154.5305,17.505 C154.5755,17.723 154.7835,17.877 154.9555,17.883 C154.9775,17.885 154.9975,17.887 155.0235,17.887 C155.2405,17.887 155.4415,17.741 155.4845,17.506 C155.8335,15.649 156.0495,14.829 156.5355,13.097 C156.5495,13.03 156.5665,12.96 156.5665,12.881 C156.5835,12.747 156.4575,12.506 156.2445,12.493 L156.2445,12.493 Z M43.3765,12.493 C43.3605,12.487 43.3255,12.487 43.3095,12.487 C43.0555,12.491 42.9325,12.715 42.8985,12.866 C42.5725,13.955 42.7065,13.554 42.4165,14.3 C42.0135,14.739 41.0245,15.522 40.3295,15.799 C39.5005,16.137 38.1755,16.503 35.1415,16.503 C34.5755,16.498 34.3435,16.106 34.3285,15.583 L34.3285,9.458 L36.0415,9.458 C37.4075,9.462 38.1415,9.868 38.5665,10.471 L38.5665,11.807 C38.5665,12.047 38.7345,12.289 38.9805,12.289 C39.0795,12.29 39.2085,12.26 39.2935,12.159 C39.3775,12.056 39.3945,11.942 39.3955,11.831 L39.3955,6.234 C39.3945,6.114 39.3795,6 39.3075,5.891 C39.2325,5.782 39.0905,5.726 38.9805,5.731 C38.8685,5.729 38.7325,5.78 38.6605,5.884 C38.5835,5.987 38.5665,6.097 38.5665,6.211 L38.5665,7.126 C38.1055,8.021 37.3125,8.577 36.0185,8.584 L34.4815,8.584 C34.4185,8.584 34.3765,8.578 34.3585,8.573 L34.3545,8.567 C34.3415,8.543 34.3265,8.449 34.3285,8.296 L34.3285,2.898 C34.3495,2.341 34.5085,1.912 35.0975,1.906 L37.0495,1.906 C38.7845,1.904 40.5195,2.697 41.5935,3.775 L41.7975,3.98 C41.9685,4.503 42.1985,5.353 42.2625,5.568 C42.3005,5.672 42.3755,5.861 42.6395,5.882 C42.6625,5.882 42.6835,5.88 42.7045,5.877 C42.8545,5.863 43.0565,5.7 43.0415,5.493 C43.0415,5.465 43.0405,5.436 43.0355,5.406 C42.7295,3.696 42.5785,2.718 42.4025,1.01 C42.3905,0.772 42.2255,0.505 41.9445,0.507 C41.6295,0.508 41.4705,0.784 41.4445,1.031 C41.3695,1.045 41.1985,1.059 40.9355,1.058 L30.2475,1.058 C30.0145,1.058 29.8545,1.254 29.8545,1.449 C29.8545,1.531 29.8685,1.629 29.9375,1.722 C30.0065,1.817 30.1345,1.867 30.2475,1.864 L30.9265,1.864 C31.1735,1.866 31.4095,2.19 31.4145,2.942 L31.4145,15.298 C31.3915,16.395 31.2575,16.571 30.9505,16.573 L30.1595,16.573 C29.9185,16.573 29.7685,16.78 29.7685,16.965 C29.7685,17.11 29.9025,17.358 30.1595,17.358 C30.5575,17.358 31.9935,17.338 33.5695,17.338 C34.3585,17.338 35.1835,17.342 35.9285,17.358 C37.0775,17.378 38.5625,17.395 39.7615,17.422 C40.3595,17.436 40.8865,17.452 41.2615,17.473 C41.4335,17.483 41.5725,17.495 41.6665,17.506 C41.7085,17.723 41.9165,17.877 42.0885,17.884 C42.1095,17.885 42.1305,17.887 42.1565,17.887 C42.3735,17.887 42.5765,17.741 42.6205,17.506 C42.9685,15.649 43.1835,14.829 43.6655,13.096 C43.6845,13.03 43.7005,12.961 43.7005,12.88 C43.7165,12.745 43.5905,12.505 43.3765,12.493 L43.3765,12.493 Z M76.1405,0.859 C75.3475,0.864 74.6125,1.482 74.6035,2.304 C74.6055,3.108 75.1075,3.814 75.8735,3.816 C76.1315,3.815 76.3715,3.756 76.5735,3.675 C76.5205,4.151 76.1215,4.855 75.2665,5.635 C75.1835,5.71 75.1415,5.825 75.1435,5.919 C75.1435,6.001 75.1675,6.071 75.1975,6.132 C75.2665,6.238 75.3605,6.32 75.5085,6.323 L75.5155,6.323 C75.6045,6.323 75.6985,6.279 75.7635,6.214 C77.0125,5.147 77.8105,4.18 77.8055,2.525 C77.8035,1.637 77.0775,0.862 76.1405,0.859 L76.1405,0.859 Z M21.7635,0.908 C20.9965,0.908 20.4565,0.938 19.8545,0.938 C19.5545,0.938 19.2335,0.931 18.8595,0.908 L18.2015,0.866 L18.0645,0.858 L17.9965,0.976 C16.6325,3.407 15.7495,4.799 14.2905,7.172 C13.2765,8.83 12.6305,9.847 11.6195,11.417 C10.2255,9.466 9.3565,8.245 7.9825,6.188 C6.6405,4.173 5.8465,2.981 4.5715,0.945 L4.5045,0.84 L1.6695,0.908 L0.3995,0.908 C0.2505,0.908 0.0125,0.987 0.000500000001,1.238 C-0.0055,1.311 0.0405,1.458 0.1495,1.513 C0.2495,1.567 0.3205,1.562 0.3995,1.565 C0.6475,1.565 0.8095,1.603 1.0685,1.649 C1.1625,1.617 2.1335,2.536 2.4595,2.91 L2.4595,5.8 C2.4595,8.751 2.3585,11.366 2.1815,13.303 C2.0375,15.063 1.7505,16.317 1.5595,16.594 C1.1455,16.602 0.7845,16.659 0.4225,16.659 C0.2645,16.659 0.000500000001,16.768 0.000500000001,17.01 C0.000500000001,17.254 0.2645,17.358 0.4225,17.358 C1.4365,17.358 1.9375,17.293 2.9285,17.293 C3.8965,17.293 4.4645,17.358 5.4575,17.36 C5.6125,17.358 5.8835,17.297 5.9015,17.01 C5.9015,16.759 5.6265,16.659 5.4575,16.659 C5.0265,16.659 4.7125,16.604 4.2125,16.54 C3.6495,15.575 3.3765,10.255 3.3295,6.327 C3.3195,5.929 3.3175,5.46 3.3175,5.006 C3.3175,4.614 3.3195,4.236 3.3225,3.934 L3.5485,4.244 C4.2455,5.202 7.3295,9.961 9.8965,13.96 C10.0515,14.178 10.1505,14.433 10.4885,14.459 C10.7895,14.463 10.9335,14.235 11.0825,13.981 C11.3085,13.606 13.5205,10.099 15.0235,7.619 C16.0475,5.941 16.7015,4.881 17.6205,3.334 C17.6505,4.545 17.7185,6.779 17.7185,8.591 C17.7185,11.091 17.6745,14.368 17.6725,15.017 C17.6325,16.35 17.4075,16.444 16.8305,16.573 C16.5285,16.618 16.3425,16.659 16.0455,16.659 C15.8935,16.659 15.6475,16.776 15.6475,17.01 C15.6425,17.085 15.6705,17.222 15.7825,17.295 C15.8895,17.362 15.9675,17.356 16.0455,17.358 C17.1535,17.358 17.7905,17.27 18.8695,17.27 C19.9485,17.27 20.5635,17.358 21.6695,17.358 C21.8315,17.358 22.0925,17.252 22.0925,17.01 C22.0985,16.936 22.0635,16.803 21.9605,16.733 C21.8605,16.666 21.7705,16.659 21.6695,16.659 C21.3845,16.659 21.2315,16.638 20.9425,16.575 C20.4605,16.495 20.2755,16.04 20.2715,15.679 C20.2715,15.166 20.2425,12.757 20.2425,10.411 C20.2425,9.805 20.2445,9.202 20.2495,8.638 C20.2495,6.36 20.3175,3.428 20.3615,2.803 C20.3725,2.261 20.7705,1.709 21.1055,1.647 C21.3745,1.584 21.5005,1.565 21.7635,1.565 C21.8655,1.565 22.1605,1.498 22.1605,1.238 C22.1655,1.158 22.1205,1.036 22.0275,0.979 C21.9385,0.919 21.8545,0.91 21.7635,0.908 L21.7635,0.908 Z M69.2395,1.059 C68.3185,1.059 67.9195,1.145 67.2205,1.144 C66.3815,1.145 66.0765,1.059 65.2235,1.057 C64.9885,1.059 64.8065,1.25 64.8065,1.449 C64.8065,1.528 64.8215,1.641 64.9115,1.732 C65.0025,1.82 65.1195,1.841 65.2235,1.841 C65.5625,1.862 65.8275,1.864 66.1495,1.897 C66.1535,1.903 66.1565,1.912 66.1625,1.923 C66.6105,2.784 66.8355,8.497 66.8265,11.655 L66.8265,12.948 L55.6845,1.083 L55.5965,1.081 C55.5955,1.081 54.5205,1.036 53.8335,1.036 C53.0365,1.036 52.6655,1.059 51.7895,1.057 C51.5565,1.059 51.3975,1.254 51.3975,1.449 C51.3975,1.53 51.4125,1.633 51.4935,1.725 C51.5765,1.815 51.6935,1.843 51.7895,1.841 L52.2075,1.841 C52.4265,1.834 52.5015,1.873 53.4825,3.043 L53.4825,6.737 C53.4825,9.38 53.4285,11.807 53.3135,13.604 C53.2555,14.503 53.1835,15.243 53.0985,15.77 C53.0555,16.032 53.0075,16.241 52.9615,16.382 C52.9395,16.454 52.9145,16.505 52.8965,16.536 C52.8965,16.536 52.8955,16.538 52.8955,16.539 C52.6195,16.573 52.3965,16.573 52.0545,16.573 C51.8165,16.573 51.6415,16.774 51.6415,16.965 C51.6415,17.157 51.8125,17.358 52.0545,17.358 C52.8985,17.358 53.2925,17.313 54.0515,17.313 C54.8125,17.313 55.5775,17.358 56.1365,17.358 C56.3645,17.358 56.5655,17.2 56.5725,16.965 C56.5725,16.764 56.3745,16.573 56.1365,16.573 C55.8325,16.573 55.5555,16.553 55.2165,16.498 C55.1875,16.461 55.1335,16.366 55.0835,16.202 C54.5625,14.672 54.2645,9.113 54.2675,6.737 L54.2675,3.821 C64.8915,15.253 64.5425,14.88 66.7955,17.332 L66.8585,17.401 L66.9565,17.401 C66.9865,17.401 67.0335,17.403 67.0815,17.403 C67.1705,17.401 67.2875,17.401 67.4125,17.329 C67.5395,17.251 67.6175,17.083 67.6115,16.921 L67.6115,10.382 C67.5935,3.745 68.1525,2.152 68.3675,1.876 C68.7315,1.841 68.9705,1.841 69.2395,1.841 C69.4755,1.841 69.6505,1.645 69.6505,1.449 C69.6505,1.252 69.4725,1.059 69.2395,1.059 L69.2395,1.059 Z M136.6405,0.982 C135.6275,0.982 135.5315,1.073 134.5615,1.073 C133.6345,1.073 133.0285,0.982 132.0715,0.982 C131.9105,0.99 131.6315,1.002 131.5855,1.335 C131.6145,1.677 131.9455,1.689 132.0715,1.689 C132.3885,1.689 132.8735,1.739 133.2325,1.784 C133.2685,1.921 133.3045,2.101 133.3055,2.4 C133.3055,2.753 133.2835,3.068 133.1645,3.604 C132.8315,5.17 132.2805,6.649 131.4365,8.433 C129.9315,11.659 129.1445,13.243 128.7325,14.04 C127.0575,10.699 123.9815,3.967 123.6655,2.821 C123.6265,2.667 123.6095,2.536 123.6095,2.429 C123.6215,2.064 123.7585,1.942 124.1445,1.762 C124.3415,1.689 124.4955,1.689 124.7135,1.689 C124.8685,1.689 125.1255,1.58 125.1255,1.335 C125.1235,1.083 124.8535,0.982 124.6915,0.982 C123.4585,0.982 122.7835,1.117 121.5935,1.117 C120.4235,1.117 119.6795,1.007 118.7185,0.982 C118.5535,0.982 118.2755,1.037 118.2535,1.335 C118.2575,1.641 118.5895,1.689 118.7135,1.689 C118.8615,1.689 119.0695,1.711 119.2725,1.753 C119.9835,1.896 120.3605,2.356 120.7475,3.11 C121.6105,4.869 122.5345,7.099 123.8455,9.582 L123.8895,9.664 C123.7325,9.973 123.2435,10.94 122.9025,11.577 C122.5085,12.315 121.9335,13.272 121.5775,13.883 C119.5215,9.943 117.5715,5.566 116.4735,2.821 C116.4045,2.659 116.3805,2.528 116.3805,2.421 C116.3805,2.083 116.6205,1.889 117.0065,1.772 C117.2325,1.71 117.3995,1.689 117.6005,1.689 C117.7525,1.689 118.0345,1.589 118.0365,1.314 C117.9295,0.914 117.6635,1.019 117.5785,0.982 C116.3485,0.982 115.6685,1.117 114.4805,1.117 C113.3105,1.117 112.6115,1.005 111.4585,0.982 C111.2935,0.982 111.0175,1.037 110.9985,1.335 C111.0005,1.641 111.3315,1.689 111.4565,1.689 C111.7485,1.689 111.9145,1.689 112.1515,1.751 C112.8995,1.933 113.0895,2.394 113.5665,3.212 C114.5965,4.961 115.5155,7.184 116.6765,9.771 C118.0575,12.813 119.0465,14.944 119.8415,17.043 C120.1245,17.729 120.2535,17.958 120.5735,18 C120.5855,18 120.5985,17.998 120.6095,17.998 C120.9455,17.909 120.9045,17.735 121.0265,17.567 C121.1105,17.397 121.1895,17.205 121.2275,17.134 C122.3955,14.651 122.7285,13.911 124.1075,11.35 L124.3805,10.849 L124.8315,11.837 C125.8205,14.081 126.1605,14.825 127.1265,17.205 C127.3095,17.579 127.3515,17.891 127.7485,17.976 C127.7525,17.976 127.7685,17.976 127.8005,17.971 L127.9785,17.94 L127.9785,17.875 C128.0085,17.838 128.0225,17.799 128.0615,17.762 C128.2285,17.514 128.4455,17.061 128.5415,16.848 C130.0395,13.565 130.5245,12.588 132.0245,9.321 C133.2295,6.719 135.0765,2.965 135.3285,2.531 C135.5055,2.241 135.7955,1.851 135.8005,1.854 C135.7965,1.856 135.7985,1.858 135.7985,1.858 C135.8995,1.8 136.3155,1.661 136.6405,1.666 C136.7445,1.664 136.8355,1.659 136.9355,1.594 C137.0415,1.526 137.0825,1.389 137.0765,1.314 C137.0205,0.964 136.7365,0.992 136.6405,0.982 L136.6405,0.982 Z M91.4805,7.998 L87.4645,7.117 C86.2895,6.856 85.2935,6.137 85.2875,4.652 C85.2915,3.132 86.7675,1.71 88.8905,1.709 C90.9415,1.707 92.8185,3.096 93.5345,5.099 C93.5915,5.376 93.6375,5.599 93.7005,5.885 C93.7405,6.082 93.9135,6.286 94.1325,6.275 C94.3525,6.275 94.5065,6.077 94.5065,5.862 C94.5065,5.839 94.5055,5.814 94.5015,5.787 C94.4365,5.455 94.3035,4.642 94.1735,3.681 C94.0655,2.925 94.0205,2.054 94.0205,1.36 C94.0135,1.104 93.8285,0.931 93.6055,0.926 C93.3545,0.915 93.2095,1.148 93.1965,1.26 C92.4325,1.097 90.9535,0.837 89.0845,0.837 C86.1975,0.842 83.4525,2.648 83.4465,5.948 C83.4335,8.583 84.9775,10.07 87.1795,10.505 L90.9505,11.296 C92.5395,11.637 93.1275,12.327 93.1495,13.716 C93.1455,15.389 91.5935,16.743 89.3725,16.749 C86.5705,16.745 85.3325,14.834 84.7225,13.329 C84.6705,12.922 84.6285,12.511 84.5845,12.05 C84.5845,11.78 84.2965,11.659 84.1465,11.659 C83.9185,11.659 83.7285,11.85 83.7285,12.073 C83.7285,12.106 83.7325,12.131 83.7365,12.153 C83.7765,12.747 83.8435,13.643 83.8875,14.647 C83.9085,15.03 83.9185,15.442 83.9185,15.86 C83.9185,16.274 83.9085,16.692 83.8875,17.085 C83.8875,17.217 83.9185,17.337 84.0045,17.425 C84.0915,17.512 84.2015,17.534 84.2805,17.534 C84.4885,17.556 84.6525,17.327 84.6755,17.202 C84.7025,17.141 84.7205,17.085 84.7355,17.03 C86.0925,17.376 87.4035,17.599 89.3715,17.599 L89.3935,17.599 C92.2995,17.593 95.2885,15.813 95.2925,12.224 C95.3055,9.631 93.5605,8.447 91.4805,7.998 L91.4805,7.998 Z M320.5495,3.918 C320.4105,4.017 320.2215,4.066 319.9845,4.066 L318.8115,4.066 L318.8115,2.739 L320.0515,2.739 C320.2255,2.739 320.3615,2.766 320.4675,2.818 C320.6605,2.919 320.7565,3.106 320.7565,3.383 C320.7565,3.642 320.6875,3.819 320.5495,3.918 L320.5495,3.918 Z M321.2785,5.848 C321.2605,5.775 321.2485,5.667 321.2425,5.519 L321.2275,4.994 C321.2175,4.767 321.1745,4.605 321.0965,4.504 C321.0185,4.403 320.9005,4.323 320.7465,4.261 C320.9225,4.17 321.0595,4.051 321.1535,3.902 C321.2545,3.755 321.3015,3.563 321.3015,3.33 C321.3015,2.881 321.1235,2.574 320.7645,2.407 C320.5765,2.32 320.3345,2.277 320.0435,2.277 L318.2755,2.277 L318.2755,6.176 L318.8115,6.176 L318.8115,4.503 L319.9745,4.503 C320.1825,4.503 320.3345,4.526 320.4335,4.576 C320.6035,4.661 320.6955,4.834 320.7075,5.088 L320.7335,5.738 C320.7375,5.891 320.7445,5.993 320.7545,6.047 C320.7665,6.099 320.7785,6.144 320.7935,6.176 L321.4515,6.176 L321.4515,6.087 C321.3695,6.051 321.3125,5.971 321.2785,5.848 L321.2785,5.848 Z M120.6435,17.995 C120.6315,17.997 120.6225,17.997 120.6095,17.998 L120.6075,17.998 C120.6075,17.998 120.6015,17.998 120.6435,17.995 L120.6435,17.995 Z" id="Fill-1" fill="#010000" mask="url(#mask-2)"></path>
            </g>
        </g>
    </g>
</svg>