<?xml version="1.0" standalone="no"?>
<!DOCTYPE svg PUBLIC "-//W3C//DTD SVG 20010904//EN"
 "http://www.w3.org/TR/2001/REC-SVG-20010904/DTD/svg10.dtd">
<svg version="1.0" xmlns="http://www.w3.org/2000/svg"
 width="194.000000pt" height="194.000000pt" viewBox="0 0 194.000000 194.000000"
 preserveAspectRatio="xMidYMid meet">
<metadata>
Created by potrace 1.11, written by Peter Selinger 2001-2013
</metadata>
<g transform="translate(0.000000,194.000000) scale(0.100000,-0.100000)"
fill="#000000" stroke="none">
<path d="M905 1766 c-71 -18 -133 -52 -182 -99 -46 -44 -46 -44 -44 39 l2 51
-153 0 -153 0 0 -791 c0 -435 3 -796 7 -801 5 -8 256 -13 299 -6 3 1 6 106 7
234 0 127 1 251 1 275 l1 44 31 -32 c130 -129 421 -139 594 -20 125 86 214
234 241 400 22 136 -5 330 -63 448 -58 120 -186 222 -318 257 -70 18 -200 18
-270 1z m200 -297 c148 -77 198 -317 101 -483 -114 -194 -416 -164 -495 50
-37 97 -32 237 11 319 70 133 245 185 383 114z"/>
</g>
</svg>
